# xmcd CD database file
#
# Track frame offsets:
#	150
#	18721
#	34430
#	50888
#	67965
#	87420
#	109035
#	120394
#	144589
#	162239
#	181648
#	200942
#
# Disc length: 2906 seconds
#
# Revision: 3
# Processed by: cddbd v1.5.2PL0 Copyright (c) Steve Scherf et al.
# Submitted via: CDex 1.51
#
DISCID=ad0b580c
DTITLE=John Littlejohn - John Littlejohn's Chicago Blues Stars
DYEAR=1900
DGENRE=Blues
TTITLE0=What In The World You Goin' To Do
TTITLE1=Treat Me Wrong
TTITLE2=Catfish Blues
TTITLE3=Kiddeo
TTITLE4=Slidin' Home
TTITLE5=Dream
TTITLE6=Reelin' And Rockin'
TTITLE7=Been Around The World
TTITLE8=How Much More Long
TTITLE9=Shake Your Money Maker
TTITLE10=I'm Tired
TTITLE11=Nowhere To Lay My Head
EXTD=
EXTT0=
EXTT1=
EXTT2=
EXTT3=
EXTT4=
EXTT5=
EXTT6=
EXTT7=
EXTT8=
EXTT9=
EXTT10=
EXTT11=
PLAYORDER=
